<svg width="15" height="45" viewBox="0 0 15 45" fill="none" xmlns="http://www.w3.org/2000/svg">
<g clip-path="url(#clip0_2_3825)">
<path d="M13.3876 18.522C12.8667 18.8409 12.4352 19.2867 12.1336 19.8178C11.8319 20.3489 11.6699 20.9478 11.6628 21.5585C11.6648 22.2458 11.8685 22.9175 12.2485 23.4902C12.6285 24.063 13.1682 24.5117 13.8007 24.7808C13.5513 25.5854 13.1822 26.3478 12.7059 27.0426C12.0243 28.0238 11.3116 29.0049 10.2272 29.0049C9.14277 29.0049 8.86387 28.3749 7.61417 28.3749C6.39547 28.3749 5.96167 29.0256 4.97017 29.0256C3.97867 29.0256 3.28677 28.1167 2.49147 27.0013C1.44094 25.4387 0.863584 23.6062 0.828674 21.7237C0.828674 18.6253 2.84267 16.9832 4.82557 16.9832C5.87907 16.9832 6.75697 17.6751 7.41797 17.6751C8.04797 17.6751 9.02917 16.9418 10.2272 16.9418C10.8431 16.9259 11.4536 17.0617 12.0047 17.3373C12.5558 17.6128 13.0307 18.0197 13.3876 18.522ZM9.65917 15.6302C10.1873 15.0089 10.4862 14.2253 10.5061 13.4102C10.507 13.3027 10.4966 13.1955 10.4751 13.0902C9.56793 13.1788 8.72908 13.6112 8.13057 14.2986C7.59738 14.8951 7.28718 15.6578 7.25267 16.4571C7.25307 16.5543 7.26346 16.6512 7.28367 16.7463C7.35519 16.7598 7.42779 16.7667 7.50057 16.767C7.91865 16.7337 8.32559 16.6158 8.69667 16.4204C9.06775 16.2249 9.39522 15.9561 9.65917 15.6302Z" fill="white" fill-opacity="0.8"/>
</g>
<defs>
<clipPath id="clip0_2_3825">
<rect width="14" height="44" fill="white" transform="translate(0.314697 0.839478)"/>
</clipPath>
</defs>
</svg>
